<svg width="17" height="16" viewBox="0 0 17 16" fill="none" xmlns="http://www.w3.org/2000/svg">
<g clip-path="url(#clip0_242_473)">
<path d="M0.5 7.98662C0.5 3.60716 4.10078 0.00894515 8.49776 1.65806e-05C12.8858 -0.00891199 16.5224 3.5893 16.5 8.00002C16.4776 12.4598 12.9395 15.9777 8.47092 15.9956C4.09184 16.0134 0.5 12.3929 0.5 7.98662ZM6.24336 8.53127C6.24336 8.5893 6.24336 8.64287 6.24336 8.69198C6.30151 10.125 6.46701 11.5447 6.94115 12.9107C7.15138 13.5223 7.40187 14.1116 7.84917 14.5938C8.29648 15.0804 8.73036 15.0982 9.14188 14.5848C9.4371 14.2188 9.68759 13.8036 9.87545 13.375C10.4167 12.1206 10.6224 10.7857 10.7253 9.43305C10.7477 9.13394 10.7611 8.83037 10.7745 8.53127H6.24336ZM6.21652 7.45984H10.7656C10.6895 5.73662 10.5106 4.04912 9.80388 2.46877C9.62944 2.07591 9.37895 1.70091 9.10162 1.37055C8.72141 0.919659 8.28306 0.915195 7.9118 1.37055C7.60763 1.73662 7.34372 2.1518 7.15138 2.58484C6.6683 3.66073 6.45359 4.80805 6.33729 5.97323C6.28809 6.4643 6.26125 6.95984 6.22099 7.45984H6.21652ZM10.3809 14.6875C11.8257 14.2813 12.9797 13.5134 13.8922 12.3929C14.8047 11.2723 15.3146 9.98662 15.4354 8.53127H11.8167C11.696 10.6563 11.45 12.7411 10.3809 14.6875ZM10.4077 1.3393C11.45 3.26787 11.696 5.35269 11.8078 7.45984H15.4175C15.261 4.48216 12.9529 1.95091 10.4077 1.3393ZM1.59589 8.53573C1.3454 10.817 4.32891 14.4732 6.59226 14.6563C5.54557 12.7456 5.30403 10.6518 5.18773 8.53573H1.59589ZM5.1251 7.46877C5.26824 6.39734 5.37559 5.3527 5.55451 4.31698C5.73344 3.2768 6.06444 2.28127 6.62804 1.30359C5.05354 1.76787 3.84135 2.62055 2.91096 3.87502C2.11923 4.94198 1.68088 6.13841 1.56905 7.47323H5.12958L5.1251 7.46877Z" fill="url(#paint0_linear_242_473)"/>
</g>
<defs>
<linearGradient id="paint0_linear_242_473" x1="8.50005" y1="15.9956" x2="8.50005" y2="0" gradientUnits="userSpaceOnUse">
<stop offset="1" stop-color="#F6ECE2"/>
</linearGradient>
<clipPath id="clip0_242_473">
<rect width="16" height="16" fill="white" transform="translate(0.5)"/>
</clipPath>
</defs>
</svg>
