<svg width="104" height="104" viewBox="0 0 104 104" fill="none" xmlns="http://www.w3.org/2000/svg">
<circle cx="52.0002" cy="51.9822" r="51.5178" fill="url(#paint0_linear_404_3021)"/>
<path d="M45.9602 68.8266C45.5767 68.8254 45.1975 68.7453 44.8462 68.5913C44.495 68.4373 44.1791 68.2128 43.9183 67.9315L30.3241 53.4702C29.816 52.9287 29.5437 52.2074 29.5673 51.4652C29.5909 50.7229 29.9084 50.0204 30.45 49.5123C30.9915 49.0041 31.7128 48.7319 32.4551 48.7555C33.1973 48.7791 33.8998 49.0966 34.408 49.6381L45.9323 61.9176L69.4564 36.1838C69.6951 35.8865 69.9921 35.6412 70.3291 35.4629C70.666 35.2845 71.0359 35.177 71.416 35.1468C71.7961 35.1167 72.1783 35.1645 72.5392 35.2874C72.9001 35.4104 73.2321 35.6058 73.5147 35.8617C73.7973 36.1176 74.0247 36.4286 74.1827 36.7755C74.3408 37.1225 74.4263 37.4981 74.4339 37.8793C74.4415 38.2604 74.3712 38.6392 74.2271 38.9922C74.083 39.3452 73.8683 39.665 73.5961 39.932L48.0301 67.9036C47.7718 68.1899 47.457 68.4197 47.1056 68.5785C46.7542 68.7374 46.3738 68.8218 45.9882 68.8266H45.9602Z" fill="url(#paint1_linear_404_3021)"/>
<defs>
<linearGradient id="paint0_linear_404_3021" x1="52.0002" y1="103.5" x2="52.0002" y2="0.464355" gradientUnits="userSpaceOnUse">
<stop offset="1" stop-color="#3E6852"/>
</linearGradient>
<linearGradient id="paint1_linear_404_3021" x1="52.0002" y1="68.8266" x2="52.0002" y2="35.1381" gradientUnits="userSpaceOnUse">
<stop offset="1" stop-color="#F6ECE2"/>
</linearGradient>
</defs>
</svg>
